<svg width="16" height="16" viewBox="0 0 16 16" fill="none" xmlns="http://www.w3.org/2000/svg">
  <path d="M7.95749 3V4.64683C7.95749 4.98672 8.02884 5.30773 8.17073 5.6084C8.3126 5.90886 8.50613 6.16395 8.75108 6.373C8.99602 6.56891 9.27314 6.70629 9.58247 6.78471L12.0982 3H15L12.1563 7.19642C12.7494 7.41858 13.2525 7.73849 13.6652 8.15661C14.0779 8.57491 14.3947 9.05885 14.614 9.60785C14.8333 10.1438 14.942 10.7196 14.942 11.334V13H12.2912V11.334C12.2912 10.9418 12.1945 10.5816 12.0011 10.2548C11.8205 9.92824 11.5689 9.66706 11.2466 9.47107C10.937 9.26195 10.5889 9.1504 10.202 9.13733L7.64841 13H4.7453L7.70645 8.62714C7.19065 8.36577 6.75164 8.0398 6.39053 7.64779C6.04226 7.24254 5.77153 6.78435 5.57804 6.27452C5.4667 5.96019 5.39399 5.63297 5.3513 5.2938H4.27022C4.10261 5.2938 3.95378 5.35271 3.82483 5.47025C3.70876 5.58788 3.65075 5.73865 3.65073 5.92162V13H1V5.84366C1 4.95473 1.2454 4.26136 1.73556 3.7646C2.23861 3.25493 2.92893 3 3.80594 3H7.95749Z" fill="#00786F"/>
</svg>
