<svg xmlns="http://www.w3.org/2000/svg" fill="none" viewBox="0 0 105 76">
  <path pathLength="1" fill="currentColor" stroke="currentColor" d="M52.19.5v12.687c0 2.444.505 4.747 1.507 6.905q1.508 3.242 4.103 5.49a15.2 15.2 0 0 0 5.51 2.847L81.44.727 81.588.5h22.347l-.519.777-20.375 30.538c4.133 1.657 7.668 3.986 10.593 6.995a32.6 32.6 0 0 1 7.017 10.9c1.624 4.03 2.426 8.356 2.426 12.962V75.5H82.765V62.672q0-4.226-2.046-7.734l-.004-.006-.003-.007a14.8 14.8 0 0 0-5.321-5.613l-.02-.014c-2.1-1.441-4.452-2.232-7.066-2.368L49.857 75.272l-.147.228H27.353l.518-.777 21.267-31.9c-3.594-1.914-6.677-4.273-9.235-7.093l-.005-.006-.005-.007c-2.576-3.044-4.578-6.486-6.007-10.31l-.004-.01c-.777-2.228-1.295-4.538-1.616-6.922h-7.44c-1.085 0-2.047.38-2.897 1.164-.737.764-1.116 1.746-1.116 2.981V75.5H.5V22.043c0-6.67 1.815-11.94 5.5-15.733h.001C9.78 2.42 14.95.5 21.443.5z"/>
</svg>
